<?xml version="1.0" encoding="iso-8859-1"?>
<!-- Generator: Adobe Illustrator 19.0.0, SVG Export Plug-In . SVG Version: 6.00 Build 0)  -->
<svg version="1.1" id="Capa_1" xmlns="http://www.w3.org/2000/svg" xmlns:xlink="http://www.w3.org/1999/xlink" x="0px" y="0px"
	 viewBox="0 0 512 512" style="enable-background:new 0 0 512 512;" xml:space="preserve">
<rect x="194.675" y="41.287" transform="matrix(-0.9091 0.4167 -0.4167 -0.9091 449.7649 198.6032)" style="fill:#EA3836;" width="17.068" height="214.198"/>
<path style="fill:#FFD33F;" d="M119.467,42.667L119.467,42.667c0.009,8.9,7.219,16.111,16.119,16.119h47.172
	c7.458-0.009,13.5-6.05,13.508-13.508l0,0c0-6.878-5.18-12.663-12.015-13.423l-46.865-5.205
	c-8.849-0.998-16.828,5.367-17.818,14.217C119.501,41.464,119.467,42.07,119.467,42.667z"/>
<g>
	<path style="fill:#874D1B;" d="M102.4,365.987c-56.55,0-102.4-45.85-102.4-102.4s45.85-102.4,102.4-102.4s102.4,45.85,102.4,102.4
		C204.74,320.111,158.925,365.927,102.4,365.987z M102.4,178.253c-47.13,0-85.333,38.204-85.333,85.333S55.27,348.92,102.4,348.92
		s85.333-38.204,85.333-85.333C187.682,216.482,149.504,178.304,102.4,178.253z"/>
	<path style="fill:#874D1B;" d="M409.6,365.987c-56.55,0-102.4-45.85-102.4-102.4s45.85-102.4,102.4-102.4s102.4,45.85,102.4,102.4
		C511.94,320.111,466.125,365.927,409.6,365.987z M409.6,178.253c-47.13,0-85.333,38.204-85.333,85.333S362.47,348.92,409.6,348.92
		s85.333-38.204,85.333-85.333C494.882,216.482,456.704,178.304,409.6,178.253z"/>
</g>
<g>
	<path style="fill:#EA3836;" d="M409.6,272.12c-3.328,0-6.357-1.929-7.757-4.958l-102.4-221.867
		c-2.057-4.241-0.29-9.344,3.951-11.401c4.241-2.057,9.344-0.29,11.401,3.951c0.051,0.102,0.094,0.205,0.145,0.307l102.4,221.867
		c1.971,4.284,0.094,9.353-4.181,11.315C412.041,271.855,410.829,272.12,409.6,272.12z"/>
	<path style="fill:#EA3836;" d="M230.4,272.12h-128c-4.71-0.017-8.516-3.849-8.499-8.567c0.009-1.254,0.282-2.492,0.819-3.618
		l76.8-162.133c1.408-2.97,4.395-4.873,7.68-4.881h153.6c4.71,0.017,8.525,3.849,8.508,8.559c0,1.254-0.29,2.5-0.828,3.635
		l-64.674,136.533l-15.411-7.313l58.923-124.348H184.602l-68.719,145.067H230.4V272.12z"/>
</g>
<g>
	<path style="fill:#383856;" d="M102.4,331.853c-6.605,0.009-13.167-0.947-19.499-2.825c-4.531-1.314-7.134-6.042-5.828-10.573
		c1.314-4.531,6.042-7.134,10.573-5.828c0.043,0.009,0.077,0.026,0.119,0.034c4.753,1.408,9.677,2.125,14.635,2.116
		c4.71,0,8.533,3.823,8.533,8.533S107.11,331.853,102.4,331.853z"/>
	<path style="fill:#383856;" d="M60.587,314.786c-2.236,0-4.378-0.87-5.973-2.432c-18.065-17.732-24.866-43.998-17.664-68.267
		c1.34-4.523,6.093-7.091,10.615-5.751c4.523,1.34,7.091,6.093,5.751,10.615c-1.408,4.753-2.125,9.677-2.116,14.635
		c-0.051,13.773,5.495,26.965,15.36,36.574c3.362,3.302,3.422,8.704,0.119,12.066C65.075,313.865,62.882,314.786,60.587,314.786z"/>
	<path style="fill:#383856;" d="M435.2,218.138c-1.263-0.009-2.517-0.299-3.652-0.853c-4.617-2.193-9.549-3.678-14.609-4.395
		c-4.668-0.666-7.91-4.983-7.245-9.66c0.666-4.668,4.983-7.91,9.66-7.253c6.767,0.964,13.355,2.953,19.524,5.888
		c4.241,2.057,6.016,7.159,3.959,11.401c-1.417,2.927-4.378,4.796-7.629,4.813v0.06H435.2z"/>
	<path style="fill:#383856;" d="M466.859,289.186c-0.828,0-1.647-0.119-2.432-0.358c-4.514-1.348-7.083-6.093-5.743-10.607
		c1.408-4.753,2.116-9.677,2.116-14.635c0.017-10.462-3.183-20.676-9.173-29.252c-2.62-3.917-1.562-9.216,2.355-11.836
		c3.806-2.543,8.943-1.63,11.639,2.074c11.861,17.067,15.317,38.596,9.387,58.513C473.933,286.695,470.622,289.169,466.859,289.186z
		"/>
</g>
<path style="fill:#91CECE;" d="M256,297.72c-18.85,0-34.133-15.283-34.133-34.133S237.15,229.453,256,229.453
	c18.85,0,34.133,15.283,34.133,34.133S274.85,297.72,256,297.72z M256,246.52c-9.429,0-17.067,7.637-17.067,17.067
	s7.637,17.067,17.067,17.067c9.429,0,17.067-7.637,17.067-17.067S265.429,246.52,256,246.52z"/>
<path style="fill:#FFD33F;" d="M371.2,92.92h-4.267c-4.71,0-8.533-3.823-8.533-8.533c0-4.71,3.823-8.533,8.533-8.533h4.267
	c7.066,0,12.8-5.734,12.8-12.8s-5.734-12.8-12.8-12.8h-64c-4.71,0-8.533-3.823-8.533-8.533s3.823-8.533,8.533-8.533h64
	c16.495,0,29.867,13.372,29.867,29.867S387.695,92.92,371.2,92.92z"/>
<rect y="374.528" style="fill:#383856;" width="512" height="110.925"/>
<g>
	<path style="fill:#FFD33F;" d="M119.467,451.32h-102.4c-4.71,0-8.533-3.823-8.533-8.533s3.823-8.533,8.533-8.533h102.4
		c4.71,0,8.533,3.823,8.533,8.533S124.177,451.32,119.467,451.32z"/>
	<path style="fill:#FFD33F;" d="M315.733,451.32H196.267c-4.71,0-8.533-3.823-8.533-8.533s3.823-8.533,8.533-8.533h119.467
		c4.71,0,8.533,3.823,8.533,8.533S320.444,451.32,315.733,451.32z"/>
	<path style="fill:#FFD33F;" d="M494.933,451.32h-102.4c-4.71,0-8.533-3.823-8.533-8.533s3.823-8.533,8.533-8.533h102.4
		c4.71,0,8.533,3.823,8.533,8.533S499.644,451.32,494.933,451.32z"/>
</g>
<path style="fill:#FFAC3E;" d="M128.751,57.216c2.133,1.024,4.463,1.562,6.827,1.57h47.172c7.424,0.043,13.474-5.948,13.508-13.372
	c0.017-2.91-0.913-5.751-2.654-8.09C178.142,49.818,149.786,55.04,128.751,57.216z"/>
<g>
</g>
<g>
</g>
<g>
</g>
<g>
</g>
<g>
</g>
<g>
</g>
<g>
</g>
<g>
</g>
<g>
</g>
<g>
</g>
<g>
</g>
<g>
</g>
<g>
</g>
<g>
</g>
<g>
</g>
</svg>
